<svg version="1.1" id="Icons" xmlns="http://www.w3.org/2000/svg" xmlns:xlink="http://www.w3.org/1999/xlink" x="0px" y="0px" viewBox="0 0 32 32" style="enable-background:new 0 0 32 32;" xml:space="preserve">
<style type="text/css">
	.st0{fill:none;stroke:#000000;stroke-width:2;stroke-linecap:round;stroke-linejoin:round;stroke-miterlimit:10;}
</style>
<g>
	<path d="M17,2.1V15h3.1c0.2-3.8,1.7-7.4,4.3-10.2C22.3,3.2,19.7,2.2,17,2.1z" id="id_101" style="fill: rgb(255, 191, 0);"></path>
	<path d="M22.1,17c0.2,3.3,1.6,6.4,3.8,8.9c2.3-2.3,3.8-5.4,4.1-8.9H22.1z" id="id_102" style="fill: rgb(255, 191, 0);"></path>
	<path d="M2.1,17c0.2,3.5,1.7,6.6,4.1,8.9c2.3-2.5,3.6-5.6,3.8-8.9H2.1z" id="id_103" style="fill: rgb(255, 191, 0);"></path>
	<path d="M9.9,15c-0.2-3.3-1.6-6.4-3.8-8.9C3.8,8.4,2.3,11.5,2.1,15H9.9z" id="id_104" style="fill: rgb(255, 191, 0);"></path>
	<path d="M25.9,6.1c-2.3,2.5-3.6,5.6-3.8,8.9h7.9C29.7,11.5,28.2,8.4,25.9,6.1z" id="id_105" style="fill: rgb(255, 191, 0);"></path>
	<path d="M20.1,17H17v12.9c2.7-0.2,5.3-1.2,7.4-2.7C21.8,24.4,20.3,20.8,20.1,17z" id="id_106" style="fill: rgb(255, 191, 0);"></path>
	<path d="M15,17h-3.1c-0.2,3.8-1.7,7.4-4.3,10.2c2.1,1.6,4.6,2.6,7.4,2.7V17z" id="id_107" style="fill: rgb(255, 191, 0);"></path>
	<path d="M11.9,15H15V2.1c-2.7,0.2-5.3,1.2-7.4,2.7C10.2,7.6,11.7,11.2,11.9,15z" id="id_108" style="fill: rgb(255, 191, 0);"></path>
</g>
</svg>